<svg xmlns="http://www.w3.org/2000/svg" viewBox="212 418 1178 190" fill="none">
  <g id="text" transform="translate(210 610) scale(0.1 -0.1)" fill="#0A0A0A">
    <path d="M100 1745 l0 -96 82 3 81 3 2 80 c1 44 -1 86 -3 93 -3 8 -29 12 -83
12 l-79 0 0 -95z M11658 1800 c-5 -36 -2 -40 33 -40 27 0 39 15 39 51 0 15 -7 19 -34
19 -30 0 -34 -3 -38 -30z M2270 1585 l0 -115 -100 0 -100 0 0 -75 0 -75 100 0 100 0 0 -303 c0
-346 5 -379 68 -444 72 -74 87 -78 360 -81 l242 -3 0 76 0 75 -209 0 c-200 0
-209 1 -242 23 -58 39 -59 44 -59 365 l0 292 255 0 255 0 0 75 0 75 -255 0
-255 0 0 115 0 115 -80 0 -80 0 0 -115z M8978 1588 l-3 -113 -97 -3 -98 -3 0 -74 0 -74 98 -3 97 -3 5 -325
c3 -218 9 -334 17 -351 19 -42 73 -98 117 -122 38 -21 56 -22 289 -25 l247 -3
0 75 0 76 -207 0 c-189 0 -211 2 -240 20 -60 36 -68 65 -71 260 -1 96 1 226 4
288 l7 112 253 0 254 0 0 75 0 75 -257 2 -258 3 -3 113 -3 112 -74 0 -74 0 -3
-112z M11210 1655 c0 -25 1 -25 91 -25 112 0 129 -8 129 -60 l0 -40 -96 0
c-100 0 -156 -16 -173 -49 -32 -59 -16 -142 30 -156 38 -12 169 -7 186 7 13
10 17 10 20 1 3 -7 19 -13 38 -13 l33 0 12 78 c6 42 14 111 17 154 5 72 4 77
-20 102 -25 25 -30 26 -147 26 l-120 0 0 -25z m207 -212 c-9 -53 -27 -66 -101
-71 -74 -5 -106 8 -106 43 0 49 31 65 126 65 l87 0 -6 -37z M11640 1673 c0 -5 -11 -84 -25 -177 -14 -93 -25 -171 -25 -173 0 -2
16 -3 35 -3 23 0 35 5 35 14 0 14 36 257 46 314 6 31 5 32 -30 32 -20 0 -36
-3 -36 -7z M100 980 l0 -490 79 0 79 0 4 58 c1 31 2 252 0 490 l-3 432 -80 0
-79 0 0 -490z M890 1461 c-69 -21 -130 -73 -166 -141 -17 -32 -19 -67 -22 -432 l-3
-398 81 0 80 0 0 363 c0 491 -21 460 321 465 263 4 295 -2 336 -55 l28 -36 3
-369 3 -368 80 0 80 0 -3 388 c-3 384 -3 387 -27 440 -13 30 -42 68 -64 88
-69 59 -105 64 -421 63 -155 0 -292 -4 -306 -8z M5111 1453 c-63 -23 -126 -89 -145 -154 -23 -76 -23 -586 -1 -650 17
-48 61 -98 115 -132 34 -21 47 -22 375 -27 l340 -5 0 -82 c0 -67 -4 -87 -21
-110 -37 -49 -60 -52 -455 -52 l-365 -1 0 -73 1 -72 410 0 411 0 49 25 c56 29
108 96 125 161 7 25 10 208 8 526 -3 478 -3 489 -25 528 -25 47 -64 85 -113
111 -32 17 -64 19 -350 21 -266 2 -322 -1 -359 -14z m615 -153 c70 -34 74 -52
74 -324 0 -262 -6 -293 -59 -320 -25 -13 -72 -16 -276 -16 -274 0 -300 5 -335
62 -18 31 -20 50 -20 270 0 130 4 248 9 261 13 34 49 66 86 76 16 5 131 10
254 10 207 1 228 -1 267 -19z M6593 1460 c-52 -12 -122 -59 -149 -100 -51 -77 -54 -104 -54 -502
l0 -368 80 0 80 0 0 352 c0 497 -18 471 338 476 l232 3 0 75 0 74 -247 -1
c-137 -1 -262 -4 -280 -9z M7500 1395 l0 -75 328 0 c300 0 331 -2 369 -19 55 -26 73 -62 73
-150 l0 -70 -327 -3 c-358 -4 -373 -6 -436 -66 -60 -57 -72 -95 -72 -232 0
-109 3 -130 22 -165 29 -55 59 -84 107 -106 38 -17 73 -19 454 -19 l413 0 -3
398 -3 397 -27 51 c-31 59 -75 95 -141 118 -40 14 -102 16 -402 16 l-355 0 0
-75z m768 -588 c3 -113 2 -118 -22 -142 l-25 -25 -276 0 c-306 0 -324 3 -344
61 -14 39 -14 129 -1 163 5 14 24 35 42 46 31 19 48 20 328 18 l295 -3 3 -118z M10149 1461 c-75 -23 -142 -85 -164 -152 -14 -40 -16 -96 -13 -351 3
-333 3 -331 69 -397 67 -68 53 -66 497 -69 l402 -3 0 76 0 75 -356 0 c-309 0
-361 2 -390 16 -49 24 -64 59 -64 154 l0 80 325 0 c354 0 369 2 429 58 52 49
66 94 66 222 0 129 -15 178 -73 238 -54 56 -94 62 -416 61 -157 0 -298 -4
-312 -8z m581 -159 c63 -31 89 -128 56 -207 -26 -62 -41 -65 -366 -65 l-290 0
0 99 c0 86 3 102 23 132 35 52 65 58 317 58 195 1 230 -1 260 -17z"/>
  </g>
  <g id="bars">
    <rect x="552" y="463" width="109" height="16" rx="8.00" ry="8.00" fill="#08B6E6"/>
    <rect x="552" y="503" width="109" height="16" rx="8.00" ry="8.00" fill="#6B20ED"/>
    <rect x="552" y="545" width="109" height="15" rx="7.50" ry="7.50" fill="#F2971C"/>
  </g>
</svg>
